<svg width="24" height="24" viewBox="0 0 24 24" fill="none" xmlns="http://www.w3.org/2000/svg">
<path d="M12.0003 8.0625C11.6913 8.0625 11.4407 8.33227 11.4407 8.66497V15.335C11.4407 15.6677 11.6913 15.9375 12.0003 15.9375C12.3094 15.9375 12.56 15.6677 12.56 15.335V8.66497C12.5593 8.33227 12.3094 8.0625 12.0003 8.0625Z" fill="white"/>
<path d="M9.18465 9.77554C8.8756 9.77554 8.625 10.0453 8.625 10.378V13.622C8.625 13.9547 8.8756 14.2245 9.18465 14.2245C9.4937 14.2245 9.7443 13.9547 9.7443 13.622V10.378C9.7443 10.0453 9.4937 9.77554 9.18465 9.77554Z" fill="white"/>
<path d="M14.2557 10.378C14.2557 10.0453 14.5063 9.77554 14.8153 9.77554C15.1244 9.77554 15.375 10.0453 15.375 10.378V13.622C15.375 13.9547 15.1244 14.2245 14.8153 14.2245C14.5063 14.2245 14.2557 13.9547 14.2557 13.622V10.378Z" fill="white"/>
<path d="M7.21275 19.5134C9.12696 20.4753 12.0617 21.363 14.14 20.8493C16.2183 20.3356 18.0468 19.0956 19.2984 17.3512C20.5499 15.6068 21.1428 13.4718 20.9709 11.3284C20.799 9.18495 19.8735 7.17293 18.3601 5.65238C16.8467 4.13183 14.8441 3.202 12.7107 3.02927C10.5774 2.85655 8.45245 3.45221 6.71623 4.70966C4.98002 5.96711 3.74583 7.80428 3.23453 9.8924C2.72323 11.9805 3.07423 14.394 4.03162 16.3173L3.24996 20.0047C3.17027 20.3807 3.52683 20.7023 3.89258 20.5843L7.21275 19.5134ZM5.59684 16.6491C5.67172 16.2958 5.62489 15.9275 5.46396 15.6043C4.65617 13.9815 4.37694 11.9542 4.78862 10.2729C5.20999 8.55209 6.22669 7.03977 7.65474 6.0055C9.08262 4.97136 10.829 4.48216 12.5816 4.62405C14.3342 4.76595 15.9807 5.5299 17.226 6.78108C18.4715 8.03243 19.2343 9.68954 19.376 11.4563C19.5177 13.2231 19.0289 14.9821 17.9983 16.4185C16.968 17.8546 15.4638 18.8739 13.756 19.296C13.0597 19.4682 12.085 19.426 10.9667 19.1739C9.87366 18.9274 8.78404 18.5123 7.93115 18.0838C7.55582 17.8952 7.12138 17.8617 6.72161 17.9907L5.20904 18.4785L5.59684 16.6491Z" fill="white"/>
</svg>
