<svg width="24" height="24" viewBox="0 0 24 24" fill="none" xmlns="http://www.w3.org/2000/svg">
<path d="M11.9999 3C10.8301 3 9.87996 3.96998 9.87996 5.16412V5.84112C7.90793 6.68803 6.5172 8.678 6.5172 11.0001V12.7213C6.5172 13.6351 6.27352 14.5328 5.813 15.3171L4.65835 17.2819C4.45165 17.6336 4.44755 18.07 4.64473 18.425C4.84066 18.7777 5.20748 19.0002 5.61061 19.0002H18.3892C18.7899 19.0002 19.1577 18.78 19.3547 18.4274C19.5547 18.0695 19.546 17.6309 19.3424 17.2831L18.1872 15.3174C17.7262 14.5334 17.4826 13.6353 17.4826 12.7213V11.0001C17.4826 8.678 16.0918 6.68803 14.1198 5.84112V5.16412C14.1198 3.96998 13.1696 3 11.9999 3ZM11.4295 5.16412C11.4295 4.84363 11.6859 4.58189 11.9999 4.58189C12.3138 4.58189 12.5702 4.84363 12.5702 5.16412V6.98567L13.1232 7.15436C14.7478 7.64998 15.933 9.18765 15.933 11.0001V12.7213C15.933 13.922 16.253 15.1016 16.8586 16.1315L17.6148 17.4183H6.38522L7.14202 16.1305C7.74675 15.1008 8.06677 13.9221 8.06677 12.7213V11.0001C8.06677 9.18765 9.25193 7.64998 10.8766 7.15436L11.4295 6.98567V5.16412Z" fill="white"/>
<path d="M12.0001 21C11.0019 21 10.145 20.3978 9.74027 19.5348H14.2599C13.8552 20.3978 12.9983 21 12.0001 21Z" fill="white"/>
</svg>
