<svg width="168" height="85" viewBox="0 0 168 85" fill="none" xmlns="http://www.w3.org/2000/svg">
    <g filter="url(#filter0_d_48_101)">
        <rect x="60" y="8" width="48" height="48" rx="24" fill="url(#paint0_linear_48_101)"/>
        <path d="M88.2484 18.5C87.709 18.5 87.2123 18.6961 86.8492 19.0649C86.4861 19.4338 86.2931 19.9383 86.2931 20.4863V21.9695C85.4576 21.3422 84.4243 20.9713 83.3056 20.9713C80.5272 20.9713 78.2749 23.2592 78.2749 26.0815V34.2577C78.2749 37.0799 80.5272 39.3678 83.3056 39.3678C86.084 39.3678 88.3363 37.0799 88.3363 34.2577V30.154C88.8421 30.1338 89.3008 29.9388 89.6393 29.5907C89.996 29.2238 90.1814 28.7258 90.1814 28.1923V26.4784C90.1814 26.3562 90.2789 26.2571 90.3992 26.2571H91.8395C92.3654 26.2571 92.8498 26.0684 93.2049 25.7123C93.5603 25.3559 93.75 24.8678 93.75 24.3393C93.75 23.8035 93.5629 23.3121 93.2019 22.9547C92.8427 22.599 92.3573 22.4214 91.8395 22.4214H90.3992C90.2789 22.4214 90.1814 22.3223 90.1814 22.2001V20.4863C90.1814 19.9465 89.9994 19.4427 89.6421 19.0708C89.2833 18.6972 88.7892 18.5 88.2484 18.5ZM87.6003 20.4863C87.6003 20.2591 87.6766 20.1024 87.7736 20.0039C87.8706 19.9054 88.0248 19.8279 88.2484 19.8279C88.4708 19.8279 88.6164 19.9043 88.7064 19.9981C88.798 20.0935 88.8742 20.2509 88.8742 20.4863V22.2001C88.8742 23.0557 89.557 23.7493 90.3992 23.7493H91.8395C92.0624 23.7493 92.2054 23.8224 92.2895 23.9056C92.3718 23.9871 92.4428 24.1226 92.4428 24.3393C92.4428 24.5403 92.3744 24.6792 92.2865 24.7674C92.1983 24.8558 92.0542 24.9293 91.8395 24.9293H90.3992C89.557 24.9293 88.8742 25.6229 88.8742 26.4784V28.1923C88.8742 28.4111 88.8014 28.5629 88.7092 28.6576C88.6183 28.7511 88.4711 28.8279 88.2484 28.8279C87.8387 28.8279 87.6003 28.5703 87.6003 28.1923V26.4784C87.6003 25.6229 86.9175 24.9293 86.0752 24.9293H84.6349C84.437 24.9293 84.3003 24.8598 84.2135 24.7705C84.1264 24.6809 84.0541 24.5346 84.0541 24.3165C84.0541 24.1165 84.1216 23.9848 84.2045 23.9028C84.289 23.8192 84.4282 23.7493 84.6349 23.7493H86.0752C86.9175 23.7493 87.6003 23.0557 87.6003 22.2001V20.4863Z" fill="white"/>
        <path d="M90.3481 30.1696C90.3481 29.6051 90.7986 29.1475 91.3542 29.1475C91.9099 29.1475 92.3604 29.6051 92.3604 30.1696V34.2577C92.3582 38.9406 88.8928 42.8743 84.3113 43.3946V45.5H82.2991V43.3946C77.7175 42.8743 74.2522 38.9406 74.25 34.2577V30.1696C74.25 29.6051 74.7005 29.1475 75.2561 29.1475C75.8118 29.1475 76.2623 29.6051 76.2623 30.1696V34.2577C76.2623 38.2088 79.4155 41.4119 83.3052 41.4119C87.1949 41.4119 90.3481 38.2088 90.3481 34.2577V30.1696Z" fill="white"/>
    </g>
    <defs>
        <filter id="filter0_d_48_101" x="0" y="-52" width="168" height="168" filterUnits="userSpaceOnUse" color-interpolation-filters="sRGB">
            <feFlood flood-opacity="0" result="BackgroundImageFix"/>
            <feColorMatrix in="SourceAlpha" type="matrix" values="0 0 0 0 0 0 0 0 0 0 0 0 0 0 0 0 0 0 127 0" result="hardAlpha"/>
            <feOffset/>
            <feGaussianBlur stdDeviation="30"/>
            <feColorMatrix type="matrix" values="0 0 0 0 0.968627 0 0 0 0 0.6 0 0 0 0 0.266667 0 0 0 0.3 0"/>
            <feBlend mode="normal" in2="BackgroundImageFix" result="effect1_dropShadow_48_101"/>
            <feBlend mode="normal" in="SourceGraphic" in2="effect1_dropShadow_48_101" result="shape"/>
        </filter>
        <linearGradient id="paint0_linear_48_101" x1="66.6667" y1="16" x2="99.3333" y2="50.6667" gradientUnits="userSpaceOnUse">
            <stop stop-color="#FFA553"/>
            <stop offset="0.478064" stop-color="#EE8C34"/>
            <stop offset="1" stop-color="#EA5434"/>
        </linearGradient>
    </defs>
</svg>
