<svg width="29" height="28" viewBox="0 0 29 28" fill="none" xmlns="http://www.w3.org/2000/svg">
<path d="M18.0558 18.9672C16.4504 20.2133 14.4305 20.8008 12.4072 20.6101C10.3838 20.4194 8.50925 19.4648 7.16497 17.9406C5.82068 16.4164 5.10775 14.4373 5.17128 12.406C5.23482 10.3747 6.07005 8.44399 7.50696 7.00683C8.94413 5.56991 10.8749 4.73468 12.9061 4.67115C14.9374 4.60761 16.9166 5.32054 18.4407 6.66483C19.9649 8.00911 20.9195 9.8837 21.1102 11.907C21.3009 13.9303 20.7134 15.9503 19.4673 17.5557L23.5153 21.6037C23.6468 21.7258 23.7429 21.881 23.7935 22.0532C23.8441 22.2253 23.8474 22.4078 23.803 22.5816C23.7585 22.7554 23.668 22.914 23.541 23.0407C23.414 23.1674 23.2552 23.2575 23.0812 23.3015C22.9076 23.346 22.7252 23.3429 22.5532 23.2925C22.3813 23.2421 22.226 23.1463 22.1038 23.0152L18.0558 18.9672ZM19.1477 12.6554C19.1596 11.8613 19.0134 11.0727 18.7176 10.3356C18.4219 9.59842 17.9826 8.92745 17.4252 8.36166C16.8678 7.79588 16.2034 7.34658 15.4708 7.0399C14.7381 6.73323 13.9518 6.57529 13.1576 6.57529C12.3633 6.57529 11.577 6.73323 10.8444 7.0399C10.1117 7.34658 9.44736 7.79588 8.88995 8.36166C8.33254 8.92745 7.8932 9.59842 7.59748 10.3356C7.30176 11.0727 7.15557 11.8613 7.16741 12.6554C7.19087 14.2287 7.83229 15.7295 8.95311 16.8337C10.0739 17.938 11.5842 18.5569 13.1576 18.5569C14.731 18.5569 16.2412 17.938 17.362 16.8337C18.4828 15.7295 19.1243 14.2287 19.1477 12.6554Z" fill="#76878F"/>
</svg>
