<svg width="29" height="28" viewBox="0 0 29 28" fill="none" xmlns="http://www.w3.org/2000/svg">
<path d="M11.5718 15.6683C10.4624 15.6683 9.39837 16.1078 8.61389 16.8899C7.82941 17.6721 7.38869 18.733 7.38869 19.8392L7.38869 21.5075C7.38869 21.9682 7.76326 22.3417 8.22531 22.3417C8.68736 22.3417 9.06192 21.9682 9.06192 21.5075V19.8392C9.06192 19.1755 9.32635 18.5389 9.79704 18.0696C10.2677 17.6003 10.9061 17.3367 11.5718 17.3367H17.4281C18.0937 17.3367 18.7321 17.6003 19.2028 18.0696C19.6735 18.5389 19.9379 19.1755 19.9379 19.8392V21.5075C19.9379 21.9682 20.3125 22.3417 20.7746 22.3417C21.2366 22.3417 21.6112 21.9682 21.6112 21.5075V19.8392C21.6112 18.733 21.1705 17.6721 20.386 16.8899C19.6015 16.1078 18.5375 15.6683 17.4281 15.6683H11.5718Z" fill="#76878F"/>
<path d="M21.1873 16.9163H21.4922C22.074 16.9163 22.632 17.1467 23.0434 17.5569C23.4547 17.9671 23.6859 18.5234 23.6859 19.1035V20.5617C23.6859 20.9643 24.0132 21.2908 24.4171 21.2908C24.8209 21.2908 25.1483 20.9643 25.1483 20.5617V19.1035C25.1483 18.1367 24.7631 17.2095 24.0774 16.5259C23.3918 15.8422 22.4619 15.4581 21.4922 15.4581L19.2791 15.4581C19.8412 15.6944 20.358 16.0383 20.7978 16.4769C20.9373 16.6159 21.0673 16.7627 21.1873 16.9163Z" fill="#76878F"/>
<path d="M9.72073 15.4581L7.50769 15.4581C6.53804 15.4581 5.60809 15.8422 4.92244 16.5259C4.23679 17.2095 3.8516 18.1367 3.8516 19.1035V20.5617C3.8516 20.9643 4.17898 21.2908 4.58282 21.2908C4.98666 21.2908 5.31404 20.9643 5.31404 20.5617L5.31404 19.1035C5.31404 18.5234 5.54515 17.9671 5.95654 17.5569C6.36793 17.1467 6.9259 16.9163 7.50769 16.9163H7.81257C7.93257 16.7627 8.06253 16.6159 8.20201 16.4769C8.64184 16.0383 9.15866 15.6944 9.72073 15.4581Z" fill="#76878F"/>
<path d="M14.4999 5.65833C12.1897 5.65833 10.3169 7.52567 10.3169 9.82916C10.3169 12.1326 12.1897 14 14.4999 14C16.8102 14 18.683 12.1326 18.683 9.82916C18.683 7.52567 16.8102 5.65833 14.4999 5.65833ZM11.9901 9.82916C11.9901 8.44707 13.1138 7.32666 14.4999 7.32666C15.8861 7.32666 17.0098 8.44707 17.0098 9.82916C17.0098 11.2113 15.8861 12.3317 14.4999 12.3317C13.1138 12.3317 11.9901 11.2113 11.9901 9.82916Z" fill="#76878F"/>
<path d="M17.3488 13.641C17.8281 13.8711 18.3654 14 18.9329 14C20.9521 14 22.589 12.3679 22.589 10.3546C22.589 8.34132 20.9521 6.70923 18.9329 6.70923C18.6696 6.70923 18.4128 6.73699 18.1652 6.78973C18.5051 7.19703 18.7781 7.66192 18.9672 8.16764C20.1629 8.18591 21.1266 9.15805 21.1266 10.3546C21.1266 11.5626 20.1445 12.5418 18.9329 12.5418C18.7675 12.5418 18.6062 12.5236 18.4512 12.4889C18.1509 12.9319 17.7777 13.3216 17.3488 13.641Z" fill="#76878F"/>
<path d="M10.5486 12.4889C10.3936 12.5236 10.2324 12.5418 10.067 12.5418C8.85543 12.5418 7.8733 11.5626 7.8733 10.3546C7.8733 9.15806 8.83695 8.18592 10.0327 8.16764C10.2218 7.66192 10.4948 7.19703 10.8347 6.78973C10.5871 6.73698 10.3303 6.70923 10.067 6.70923C8.04775 6.70923 6.41087 8.34132 6.41087 10.3546C6.41087 12.3679 8.04775 14 10.067 14C10.6345 14 11.1718 13.8711 11.6511 13.641C11.2222 13.3216 10.849 12.9319 10.5486 12.4889Z" fill="#76878F"/>
</svg>
